<svg xmlns="http://www.w3.org/2000/svg" viewBox="0 0 246 247.7"><defs><style>.cls-1,.cls-2{fill:#fa761e;}.cls-2{font-size:187px;font-family:CenturyGothic-Bold, Century Gothic;font-weight:700;}</style></defs><title>G_Logo</title><g id="Layer_1" data-name="Layer 1"><path class="cls-1" d="M138.33,12.18c-3.74-14.91-24.91-14.91-28.66,0l-1.09,4.4a14.76,14.76,0,0,1-24.94,6.67L80.49,20c-10.68-11-29-.46-24.8,14.31l1.23,4.37A14.75,14.75,0,0,1,38.69,56.94l-4.37-1.25C19.56,51.47,9,69.81,20,80.49l3.24,3.15a14.76,14.76,0,0,1-6.67,24.94l-4.4,1.09c-14.91,3.74-14.91,24.91,0,28.66l4.4,1.09a14.76,14.76,0,0,1,6.67,24.94L20,167.51c-11,10.68-.46,29,14.31,24.8l4.37-1.23a14.76,14.76,0,0,1,18.25,18.25l-1.25,4.35C51.47,228.44,69.81,239,80.49,228l3.15-3.24a14.76,14.76,0,0,1,24.94,6.67l1.09,4.4c3.74,14.91,24.91,14.91,28.66,0l1.09-4.4a14.76,14.76,0,0,1,24.94-6.67l3.15,3.24c10.68,11,29,.46,24.8-14.31l-1.23-4.37a14.76,14.76,0,0,1,18.25-18.25l4.35,1.25c14.76,4.22,25.36-14.12,14.31-24.8l-3.24-3.15a14.76,14.76,0,0,1,6.67-24.94l4.4-1.09c14.91-3.74,14.91-24.91,0-28.66l-4.4-1.09a14.76,14.76,0,0,1-6.67-24.94L228,80.49c11-10.68.46-29-14.31-24.8l-4.37,1.23a14.75,14.75,0,0,1-18.25-18.23l1.25-4.37C196.53,19.56,178.19,9,167.51,20l-3.15,3.24a14.76,14.76,0,0,1-24.94-6.67ZM124,200.82a76.84,76.84,0,1,1-2.17-153.66H124a76.84,76.84,0,0,1,0,153.68Z" transform="translate(-1 -1)"/></g><g id="Layer_2" data-name="Layer 2"><text class="cls-2" transform="translate(44.15 190.36) scale(0.98 1)">G</text></g></svg>